<?xml version="1.0" encoding="UTF-8" standalone="no"?>
<!DOCTYPE svg PUBLIC "-//W3C//DTD SVG 1.1//EN" "http://www.w3.org/Graphics/SVG/1.1/DTD/svg11.dtd">
<svg version="1.1" xmlns="http://www.w3.org/2000/svg" xmlns:xlink="http://www.w3.org/1999/xlink" preserveAspectRatio="xMidYMid meet" viewBox="0 0 640 640" width="640" height="640"><defs><path d="M596.29 340C596.29 492.49 472.49 616.29 320 616.29C167.51 616.29 43.71 492.49 43.71 340C43.71 187.51 167.51 63.71 320 63.71C472.49 63.71 596.29 187.51 596.29 340Z" id="ap0XDDC97"></path><path d="M485.08 355.43L108.84 256.42" id="a3OijfRUQT"></path><path d="M526.66 461.91C453.4 819.34 215.77 -177.69 215.77 169.83C215.77 401.52 171.55 485.01 83.1 420.33" id="b84Huy5VA"></path><path d="M524.64 477.22C512.92 534.41 498.45 541.76 480 540C383.15 530.74 214.77 -122.09 214.77 169.83C214.77 329.69 194.64 411.88 156.42 433.88C139.24 443.76 119.42 441.97 96.94 428.49" id="a2b2pespVg"></path><path d="M466.69 349.3L125.15 260" id="axmVNICkD"></path></defs><g><g><g><use xlink:href="#ap0XDDC97" opacity="1" fill="#181818" fill-opacity="1"></use><g><use xlink:href="#ap0XDDC97" opacity="1" fill-opacity="0" stroke="#08fdd8" stroke-width="49" stroke-opacity="1"></use></g></g><g><g><use xlink:href="#a3OijfRUQT" opacity="1" fill-opacity="0" stroke="#000000" stroke-width="55" stroke-opacity="1"></use></g></g><g><g><use xlink:href="#b84Huy5VA" opacity="1" fill-opacity="0" stroke="#000000" stroke-width="55" stroke-opacity="1"></use></g></g><g><g><use xlink:href="#a2b2pespVg" opacity="1" fill-opacity="0" stroke="#08fdd8" stroke-width="13" stroke-opacity="1"></use></g></g><g><g><use xlink:href="#axmVNICkD" opacity="1" fill-opacity="0" stroke="#08fdd8" stroke-width="13" stroke-opacity="1"></use></g></g></g></g></svg>